<svg width="32" height="32" viewBox="0 0 32 32" fill="none" xmlns="http://www.w3.org/2000/svg">
<path fill-rule="evenodd" clip-rule="evenodd" d="M30.0001 16C30.0001 15.7348 29.8947 15.4804 29.7072 15.2929C29.5196 15.1053 29.2653 15 29.0001 15H5.41408L11.7081 8.70798C11.8011 8.61501 11.8748 8.50463 11.9251 8.38315C11.9754 8.26167 12.0013 8.13147 12.0013 7.99998C12.0013 7.86849 11.9754 7.73829 11.9251 7.61681C11.8748 7.49534 11.8011 7.38496 11.7081 7.29198C11.6151 7.19901 11.5047 7.12525 11.3832 7.07493C11.2618 7.02462 11.1316 6.99872 11.0001 6.99872C10.8686 6.99872 10.7384 7.02462 10.6169 7.07493C10.4954 7.12525 10.3851 7.19901 10.2921 7.29198L2.29208 15.292C2.19895 15.3849 2.12507 15.4952 2.07465 15.6167C2.02424 15.7382 1.99829 15.8684 1.99829 16C1.99829 16.1315 2.02424 16.2618 2.07465 16.3832C2.12507 16.5047 2.19895 16.6151 2.29208 16.708L10.2921 24.708C10.3851 24.801 10.4954 24.8747 10.6169 24.925C10.7384 24.9753 10.8686 25.0012 11.0001 25.0012C11.1316 25.0012 11.2618 24.9753 11.3832 24.925C11.5047 24.8747 11.6151 24.801 11.7081 24.708C11.8011 24.615 11.8748 24.5046 11.9251 24.3831C11.9754 24.2617 12.0013 24.1315 12.0013 24C12.0013 23.8685 11.9754 23.7383 11.9251 23.6168C11.8748 23.4953 11.8011 23.385 11.7081 23.292L5.41408 17H29.0001C29.2653 17 29.5196 16.8946 29.7072 16.7071C29.8947 16.5196 30.0001 16.2652 30.0001 16Z" fill="#000000"/>
</svg>
