<svg width="18" height="18" viewBox="0 0 18 18" fill="none" xmlns="http://www.w3.org/2000/svg">
<g clip-path="url(#clip0)">
<path d="M5.20308 3.37781C5.7307 3.37781 6.2077 3.42168 6.64476 3.51843C7.07564 3.61518 7.44745 3.76481 7.75795 3.97574C8.06564 4.18668 8.30583 4.46231 8.47851 4.81668C8.64558 5.16824 8.73333 5.60474 8.73333 6.11437C8.73333 6.66787 8.60451 7.13418 8.35251 7.50881C8.0977 7.884 7.72533 8.18268 7.2247 8.42287C7.9042 8.61918 8.4082 8.96175 8.74233 9.45112C9.07926 9.94612 9.24014 10.5379 9.24014 11.2207C9.24014 11.7832 9.14339 12.2636 8.93245 12.6681C8.72992 13.0722 8.43107 13.4203 8.06226 13.6817C7.7017 13.9427 7.2742 14.13 6.81126 14.256C6.34413 14.3821 5.86243 14.4462 5.37858 14.4467H-0.000610352V3.38399H5.20251L5.20308 3.37781ZM12.7063 12.4982C13.0342 12.8205 13.509 12.9814 14.1271 12.9814C14.5693 12.9814 14.9506 12.87 15.2724 12.6444C15.5919 12.4279 15.782 12.1871 15.8585 11.9413H17.798C17.4965 12.8992 17.0128 13.5906 16.3743 14.004C15.7359 14.4231 14.9625 14.625 14.0658 14.625C13.4358 14.625 12.8761 14.5282 12.3609 14.3263C11.8757 14.135 11.4364 13.8435 11.0716 13.4707C10.7229 13.1046 10.4535 12.6619 10.2628 12.1438C10.0721 11.6257 9.98151 11.0571 9.98151 10.4417C9.98151 9.83812 10.0839 9.28743 10.2864 8.76881C10.4747 8.27082 10.7596 7.81491 11.1245 7.42725C11.4963 7.04362 11.9216 6.75618 12.4284 6.53062C12.9324 6.30506 13.4775 6.20549 14.0923 6.20549C14.7751 6.20549 15.3607 6.32868 15.8765 6.59812C16.3666 6.84761 16.7928 7.20657 17.1219 7.64718C17.4532 8.0865 17.6844 8.59331 17.8278 9.16481C17.9713 9.72731 18.0151 10.3191 17.9859 10.9491H12.2175C12.2175 11.5791 12.4284 12.1736 12.7507 12.4959L12.6894 12.5196L12.7063 12.4982ZM5.0242 12.5359C5.26158 12.5359 5.48995 12.5122 5.7037 12.4656C5.90634 12.4258 6.10001 12.3493 6.2752 12.24C6.43326 12.1404 6.56826 11.9936 6.66783 11.8035C6.76458 11.6246 6.80845 11.376 6.80845 11.0829C6.80845 10.5204 6.6442 10.116 6.32808 9.87018C6.00576 9.63 5.5867 9.50962 5.06245 9.50962H2.42883V12.5477H5.02476V12.5241L5.0242 12.5359ZM15.2313 8.29968C14.9647 8.00943 14.5254 7.85418 13.986 7.85418C13.6372 7.85418 13.3475 7.90987 13.113 8.03306C12.8974 8.13828 12.7074 8.28915 12.5561 8.47518C12.4213 8.64087 12.3215 8.83225 12.263 9.03768C12.2107 9.21133 12.1774 9.39012 12.1635 9.57093H15.7348C15.6819 9.00843 15.4856 8.59556 15.2251 8.3025V8.3115L15.2313 8.29968ZM4.88976 7.83675C5.32064 7.83675 5.67783 7.73718 5.95908 7.52906C6.24033 7.32712 6.37533 6.98681 6.37533 6.52443C6.37533 6.26681 6.32245 6.05587 6.24033 5.89162C6.14914 5.73451 6.02018 5.60265 5.86514 5.50799C5.69767 5.41103 5.51391 5.34545 5.32289 5.3145C5.11524 5.27521 4.90421 5.25656 4.69289 5.25881H2.42264V7.83675H4.88976ZM11.7129 4.11918H16.1893V5.20875H11.7129V4.11018V4.11918Z" fill="#000000"/>
</g>
<defs>
<clipPath id="clip0">
<rect width="18" height="18" fill="white"/>
</clipPath>
</defs>
</svg>
