<svg width="16" height="16" viewBox="0 0 16 16" fill="none" xmlns="http://www.w3.org/2000/svg">
<path d="M6.72004 7.23998C6.75337 7.01998 6.82671 6.82665 6.92004 6.66665C7.00004 6.49331 7.14671 6.35331 7.31337 6.24665C7.47337 6.14665 7.66671 6.09998 7.92004 6.09331C8.07337 6.09998 8.21337 6.12665 8.33337 6.17998C8.47337 6.23998 8.59337 6.33331 8.68671 6.41998C8.78004 6.51998 8.85337 6.63998 8.91337 6.77331C8.97337 6.90665 9.00004 7.05331 9.00004 7.19998H10.2C10.1867 6.88665 10.1267 6.59998 10 6.33331C9.90004 6.07998 9.74671 5.85331 9.54671 5.66665C9.33337 5.47998 9.10671 5.33331 8.82671 5.22665C8.54671 5.11998 8.24004 5.07331 7.90004 5.07331C7.46671 5.07331 7.08671 5.14665 6.76671 5.29998C6.44671 5.45331 6.18004 5.66665 5.96671 5.91331C5.75337 6.17331 5.59337 6.47331 5.49337 6.81998C5.39337 7.16665 5.33337 7.52665 5.33337 7.91331V8.09331C5.33337 8.47998 5.38671 8.83998 5.48671 9.18665C5.58671 9.53331 5.74671 9.83331 5.96004 10.0866C6.17337 10.3333 6.44004 10.5466 6.76004 10.6933C7.08004 10.84 7.46004 10.92 7.89337 10.92C8.20671 10.92 8.50004 10.8666 8.77337 10.7666C9.04671 10.6666 9.28671 10.5266 9.49337 10.3333C9.70004 10.1666 9.86671 9.95998 10 9.71998C10.1067 9.47998 10.18 9.22665 10.1867 8.95331H9.00004C9.00004 9.09331 8.95337 9.21998 8.89337 9.33331C8.83337 9.45998 8.75337 9.55998 8.66671 9.64665C8.55337 9.73331 8.44004 9.79998 8.30671 9.84665C8.18004 9.89331 8.04671 9.90665 7.90671 9.91331C7.66671 9.90665 7.46671 9.85998 7.31337 9.75998C7.14055 9.6628 7.00287 9.51346 6.92004 9.33331C6.81678 9.157 6.74885 8.96226 6.72004 8.75998C6.68573 8.53939 6.6679 8.31655 6.66671 8.09331V7.91331C6.66671 7.66665 6.68671 7.45998 6.72004 7.23998V7.23998ZM8.00004 1.33331C7.12456 1.33331 6.25765 1.50575 5.44882 1.84078C4.63998 2.17581 3.90505 2.66688 3.286 3.28593C2.03575 4.53618 1.33337 6.23187 1.33337 7.99998C1.33337 9.76809 2.03575 11.4638 3.286 12.714C3.90505 13.3331 4.63998 13.8241 5.44882 14.1592C6.25765 14.4942 7.12456 14.6666 8.00004 14.6666C9.76815 14.6666 11.4638 13.9643 12.7141 12.714C13.9643 11.4638 14.6667 9.76809 14.6667 7.99998C14.6667 7.1245 14.4943 6.25759 14.1592 5.44876C13.8242 4.63992 13.3331 3.90499 12.7141 3.28593C12.095 2.66688 11.3601 2.17581 10.5513 1.84078C9.74243 1.50575 8.87552 1.33331 8.00004 1.33331V1.33331ZM8.00004 13.3333C5.06004 13.3333 2.66671 10.94 2.66671 7.99998C2.66671 5.05998 5.06004 2.66665 8.00004 2.66665C10.94 2.66665 13.3334 5.05998 13.3334 7.99998C13.3334 10.94 10.94 13.3333 8.00004 13.3333Z" fill="#191919"/>
</svg>
