<svg width="18" height="18" viewBox="0 0 18 18" fill="none" xmlns="http://www.w3.org/2000/svg">
<g clip-path="url(#clip0)">
<path d="M4.65075 15.75H1.38544V5.23462H4.65075V15.75ZM3.01612 3.80025C1.97213 3.80025 1.125 2.93512 1.125 1.89112C1.125 1.38957 1.32424 0.908552 1.6789 0.553898C2.03355 0.199243 2.51457 0 3.01612 0C3.51768 0 3.9987 0.199243 4.35335 0.553898C4.70801 0.908552 4.90725 1.38957 4.90725 1.89112C4.90725 2.93512 4.06012 3.80025 3.01612 3.80025ZM16.8716 15.75H13.6136V10.6312C13.6136 9.41119 13.5889 7.84687 11.916 7.84687C10.2184 7.84687 9.95794 9.17212 9.95794 10.5435V15.75H6.696V5.23462H9.82744V6.669H9.873C10.3089 5.84269 11.3738 4.97081 12.9623 4.97081C16.2669 4.97081 16.8744 7.14713 16.8744 9.97369V15.75H16.8716Z" fill="#000000"/>
</g>
<defs>
<clipPath id="clip0">
<rect width="18" height="18" fill="white"/>
</clipPath>
</defs>
</svg>
