<svg width="32" height="32" viewBox="0 0 32 32" fill="none" xmlns="http://www.w3.org/2000/svg">
<path fill-rule="evenodd" clip-rule="evenodd" d="M16 30C16.2652 30 16.5195 29.8947 16.7071 29.7071C16.8946 29.5196 17 29.2652 17 29V5.41402L23.292 11.708C23.3849 11.801 23.4953 11.8747 23.6168 11.9251C23.7383 11.9754 23.8685 12.0013 24 12.0013C24.1314 12.0013 24.2616 11.9754 24.3831 11.9251C24.5046 11.8747 24.615 11.801 24.708 11.708C24.8009 11.615 24.8747 11.5047 24.925 11.3832C24.9753 11.2617 25.0012 11.1315 25.0012 11C25.0012 10.8685 24.9753 10.7383 24.925 10.6168C24.8747 10.4954 24.8009 10.385 24.708 10.292L16.708 2.29202C16.6151 2.19889 16.5047 2.12501 16.3832 2.07459C16.2617 2.02418 16.1315 1.99823 16 1.99823C15.8684 1.99823 15.7382 2.02418 15.6167 2.07459C15.4952 2.12501 15.3848 2.19889 15.292 2.29202L7.29196 10.292C7.19898 10.385 7.12523 10.4954 7.07491 10.6168C7.02459 10.7383 6.9987 10.8685 6.9987 11C6.9987 11.1315 7.02459 11.2617 7.07491 11.3832C7.12523 11.5047 7.19898 11.615 7.29196 11.708C7.38493 11.801 7.49531 11.8747 7.61679 11.9251C7.73827 11.9754 7.86847 12.0013 7.99996 12.0013C8.13145 12.0013 8.26165 11.9754 8.38313 11.9251C8.5046 11.8747 8.61498 11.801 8.70796 11.708L15 5.41402L15 29C15 29.2652 15.1053 29.5196 15.2929 29.7071C15.4804 29.8947 15.7347 30 16 30Z" fill="white"/>
</svg>
