<svg width="18" height="18" viewBox="0 0 18 18" fill="none" xmlns="http://www.w3.org/2000/svg">
<g clip-path="url(#clip0)">
<path d="M17.9646 3.42734C17.2909 3.7235 16.5773 3.91909 15.8468 4.00784C16.6169 3.54563 17.1934 2.82003 17.4696 1.9654C16.7412 2.38784 15.9484 2.68789 15.1228 2.85359C14.5677 2.26041 13.8323 1.86704 13.0307 1.7345C12.2291 1.60196 11.4062 1.73766 10.6897 2.12056C9.9731 2.50346 9.40294 3.11214 9.06764 3.85217C8.73233 4.5922 8.65063 5.4222 8.83521 6.2134C5.7679 6.06997 3.04878 4.59622 1.23021 2.36984C0.899169 2.93284 0.726031 3.57467 0.729026 4.22778C0.728575 4.83492 0.878057 5.43278 1.1642 5.96826C1.45034 6.50375 1.86429 6.96029 2.36928 7.29734C1.78407 7.27965 1.2116 7.12207 0.699776 6.83778V6.88222C0.699598 7.73442 0.994082 8.56047 1.53332 9.22036C2.07256 9.88026 2.82338 10.3334 3.65853 10.503C3.34217 10.5876 3.01623 10.6308 2.68878 10.6318C2.45196 10.6318 2.22584 10.6088 2.00028 10.5672C2.23795 11.3005 2.69834 11.9415 3.31737 12.4009C3.93641 12.8604 4.68328 13.1154 5.45403 13.1305C4.14813 14.1532 2.53678 14.708 0.878089 14.706C0.584298 14.7072 0.290705 14.6907 -0.00109863 14.6565C1.69095 15.7407 3.65873 16.3163 5.66834 16.3148C12.456 16.3148 16.1652 10.6926 16.1652 5.82359C16.1652 5.66834 16.1652 5.51028 16.1533 5.35165C16.8789 4.83165 17.5042 4.18444 17.9989 3.4414L17.9646 3.42734Z" fill="#000000"/>
</g>
<defs>
<clipPath id="clip0">
<rect width="18" height="18" fill="white"/>
</clipPath>
</defs>
</svg>
